HIERARCHY
ROOT hip
{
  OFFSET 0 0 0
  CHANNELS 6 Xposition Yposition Zposition Zrotation Yrotation Xrotation
  JOINT abdomen
  {
    OFFSET 0 20.6881 -0.73152
    CHANNELS 3 Zrotation Xrotation Yrotation
    JOINT chest
    {
      OFFSET 0 11.7043 -0.48768
      CHANNELS 3 Zrotation Xrotation Yrotation
      JOINT neck
      {
        OFFSET 0 22.1894 -2.19456
        CHANNELS 3 Zrotation Xrotation Yrotation
        JOINT head
        {
          OFFSET -0.24384 7.07133 1.2192
          CHANNELS 3 Zrotation Xrotation Yrotation
          JOINT leftEye
          {
            OFFSET 4.14528 8.04674 8.04672
            CHANNELS 3 Zrotation Xrotation Yrotation
            End Site
            {
              OFFSET 1 0 0
            }
          }
          JOINT rightEye
          {
            OFFSET -3.6576 8.04674 8.04672
            CHANNELS 3 Zrotation Xrotation Yrotation
            End Site
            {
              OFFSET 1 0 0
            }
          }
        }
      }
      JOINT rCollar
      {
        OFFSET -2.68224 19.2634 -4.8768
        CHANNELS 3 Zrotation Xrotation Yrotation
        JOINT rShldr
        {
          OFFSET -8.77824 -1.95073 1.46304
          CHANNELS 3 Zrotation Xrotation Yrotation
          JOINT rForeArm
          {
            OFFSET -28.1742 -1.7115 0.48768
            CHANNELS 3 Zrotation Xrotation Yrotation
            JOINT rHand
            {
              OFFSET -22.5879 0.773209 7.07136
              CHANNELS 3 Zrotation Xrotation Yrotation
              JOINT rThumb1
              {
                OFFSET -1.2192 -0.487915 3.41376
                CHANNELS 3 Zrotation Xrotation Yrotation
                JOINT rThumb2
                {
                  OFFSET -3.37035 -0.52449 3.41376
                  CHANNELS 3 Zrotation Xrotation Yrotation
                  End Site
                  {
                    OFFSET -1.78271 -1.18214 1.43049
                  }
                }
              }
              JOINT rIndex1
              {
                OFFSET -7.75947 0.938293 5.60832
                CHANNELS 3 Zrotation Xrotation Yrotation
                JOINT rIndex2
                {
                  OFFSET -2.54057 -0.884171 1.56538
                  CHANNELS 3 Zrotation Xrotation Yrotation
                  End Site
                  {
                    OFFSET -1.62519 -0.234802 1.16502
                  }
                }
              }
              JOINT rMid1
              {
                OFFSET -8.24714 1.18213 3.41376
                CHANNELS 3 Zrotation Xrotation Yrotation
                JOINT rMid2
                {
                  OFFSET -3.10165 -0.590103 1.0647
                  CHANNELS 3 Zrotation Xrotation Yrotation
                  End Site
                  {
                    OFFSET -2.48547 -0.328903 0.83742
                  }
                }
              }
              JOINT rRing1
              {
                OFFSET -8.82822 0.546677 1.51678
                CHANNELS 3 Zrotation Xrotation Yrotation
                JOINT rRing2
                {
                  OFFSET -2.60934 -0.819778 -0.0198488
                  CHANNELS 3 Zrotation Xrotation Yrotation
                  End Site
                  {
                    OFFSET -2.33842 -0.294052 0.168128
                  }
                }
              }
              JOINT rPinky1
              {
                OFFSET -8.27202 -0.0477905 -0.4584
                CHANNELS 3 Zrotation Xrotation Yrotation
                JOINT rPinky2
                {
                  OFFSET -1.82734 -0.647385 -0.700984
                  CHANNELS 3 Zrotation Xrotation Yrotation
                  End Site
                  {
                    OFFSET -1.69225 -0.51767 -0.607171
                  }
                }
              }
            }
          }
        }
      }
      JOINT lCollar
      {
        OFFSET 2.68224 19.2634 -4.8768
        CHANNELS 3 Zrotation Xrotation Yrotation
        JOINT lShldr
        {
          OFFSET 8.77824 -1.95073 1.46304
          CHANNELS 3 Zrotation Xrotation Yrotation
          JOINT lForeArm
          {
            OFFSET 28.1742 -1.7115 0.48768
            CHANNELS 3 Zrotation Xrotation Yrotation
            JOINT lHand
            {
              OFFSET 22.5879 0.773209 7.07136
              CHANNELS 3 Zrotation Xrotation Yrotation
              JOINT lThumb1
              {
                OFFSET 1.2192 -0.487915 3.41376
                CHANNELS 3 Zrotation Xrotation Yrotation
                JOINT lThumb2
                {
                  OFFSET 3.37035 -0.52449 3.41376
                  CHANNELS 3 Zrotation Xrotation Yrotation
                  End Site
                  {
                    OFFSET 1.78271 -1.18214 1.43049
                  }
                }
              }
              JOINT lIndex1
              {
                OFFSET 7.75947 0.938293 5.60832
                CHANNELS 3 Zrotation Xrotation Yrotation
                JOINT lIndex2
                {
                  OFFSET 2.54057 -0.884171 1.56538
                  CHANNELS 3 Zrotation Xrotation Yrotation
                  End Site
                  {
                    OFFSET 1.62519 -0.234802 1.16502
                  }
                }
              }
              JOINT lMid1
              {
                OFFSET 8.24714 1.18213 3.41376
                CHANNELS 3 Zrotation Xrotation Yrotation
                JOINT lMid2
                {
                  OFFSET 3.10165 -0.590103 1.0647
                  CHANNELS 3 Zrotation Xrotation Yrotation
                  End Site
                  {
                    OFFSET 2.48547 -0.328903 0.83742
                  }
                }
              }
              JOINT lRing1
              {
                OFFSET 8.82822 0.546677 1.51678
                CHANNELS 3 Zrotation Xrotation Yrotation
                JOINT lRing2
                {
                  OFFSET 2.60934 -0.819778 -0.0198488
                  CHANNELS 3 Zrotation Xrotation Yrotation
                  End Site
                  {
                    OFFSET 2.33842 -0.294052 0.168128
                  }
                }
              }
              JOINT lPinky1
              {
                OFFSET 8.27202 -0.0477905 -0.4584
                CHANNELS 3 Zrotation Xrotation Yrotation
                JOINT lPinky2
                {
                  OFFSET 1.82734 -0.647385 -0.700984
                  CHANNELS 3 Zrotation Xrotation Yrotation
                  End Site
                  {
                    OFFSET 1.69225 -0.51767 -0.607171
                  }
                }
              }
            }
          }
        }
      }
    }
  }
  JOINT rButtock
  {
    OFFSET -8.77824 4.35084 1.2192
    CHANNELS 3 Zrotation Xrotation Yrotation
    JOINT rThigh
    {
      OFFSET 0 -1.70687 -2.19456
      CHANNELS 3 Zrotation Xrotation Yrotation
      JOINT rShin
      {
        OFFSET 0 -36.8199 0.73152
        CHANNELS 3 Zrotation Xrotation Yrotation
        JOINT rFoot
        {
          OFFSET 0.73152 -45.1104 -5.12064
          CHANNELS 3 Zrotation Xrotation Yrotation
          End Site
          {
            OFFSET -1.1221 -3.69964 12.103
          }
        }
      }
    }
  }
  JOINT lButtock
  {
    OFFSET 8.77824 4.35084 1.2192
    CHANNELS 3 Zrotation Xrotation Yrotation
    JOINT lThigh
    {
      OFFSET 0 -1.70687 -2.19456
      CHANNELS 3 Zrotation Xrotation Yrotation
      JOINT lShin
      {
        OFFSET 0 -36.8199 0.73152
        CHANNELS 3 Zrotation Xrotation Yrotation
        JOINT lFoot
        {
          OFFSET -0.73152 -45.1104 -5.12064
          CHANNELS 3 Zrotation Xrotation Yrotation
          End Site
          {
            OFFSET 1.1221 -3.69964 12.103
          }
        }
      }
    }
  }
}
MOTION
Frames:	8
Frame Time:	0.00833333
-178.458 85.4571 16.4583 0.0 0.0 0.0 1.92989 -0.00172175 0.0523827 0.532083 0.00507123 0.0921228 4.04191e-14 0.0 4.72114e-16 1.21703e-13 3.18055e-15 1.36354e-15 -0.0 0.0 0.0 -0.0 0.0 0.0 2.05228e-14 -1.91408e-16 4.47265e-16 4.24768e-13 -3.85145e-15 7.7526e-15 7.29003e-12 -2.31644e-12 -9.54166e-15 8.34578e-11 1.48925e-12 1.16726e-12 1.96857e-10 -1.79776e-12 2.5031e-12 3.39948e-10 -3.10422e-12 4.32317e-12 1.96862e-10 -1.79821e-12 2.49674e-12 7.73091 5.47488 0.417314 1.96857e-10 -1.79811e-12 2.50628e-12 2.90554 0.965183 0.102902 1.96861e-10 -1.79791e-12 2.5031e-12 10.2786 0.731801 0.0259123 1.9685e-10 -1.79662e-12 2.51582e-12 2.22167 -0.733487 -0.20892 2.03288e-14 -1.88302e-16 4.96962e-17 4.22701e-13 -4.05645e-15 5.56597e-15 7.29888e-12 2.05305e-12 5.08889e-14 8.35007e-11 -2.89262e-12 1.12592e-12 1.96969e-10 -1.822e-12 2.519e-12 3.40172e-10 -3.15193e-12 4.34146e-12 1.96969e-10 -1.82325e-12 2.5349e-12 -7.73091 5.47488 -0.417314 1.96969e-10 -1.82236e-12 2.52218e-12 -2.90554 0.965183 -0.102902 1.96968e-10 -1.82226e-12 2.519e-12 -10.2786 0.731801 -0.0259123 1.96977e-10 -1.81928e-12 2.50946e-12 -2.22167 -0.733487 0.20892 -2.03217e-16 0.0 -3.88251e-19 1.95929 -7.26118 -0.192005 0.00412191 7.58532 0.107074 -0.521092 -0.330684 0.0523062 2.03217e-16 0.0 3.88251e-19 0.976498 -1.92613 0.000872843 0.00898848 -2.0786 0.0740745 0.488065 3.99809 -0.136765
-171.527 85.2718 7.4169 51.633 85.501 51.9355 0.44925 1.65791 1.05496 0.934451 -0.201888 0.394854 1.18497 -1.73194 0.423024 -1.00098 3.07413 0.674177 -0.0 0.0 0.0 -0.0 0.0 0.0 2.20716e-14 4.68362e-13 -2.66612e-15 21.9808 9.2517 0.118091 -4.79037 -2.30346 7.33966 8.65472e-06 -0.135641 -0.0190634 6.40964e-10 -1.2049e-10 -9.95406e-10 1.10548e-09 -2.07594e-10 -1.72245e-09 6.4097e-10 -1.20492e-10 -9.95412e-10 7.73091 5.47488 0.417314 6.40965e-10 -1.20493e-10 -9.95403e-10 2.90554 0.965183 0.102902 6.40967e-10 -1.20493e-10 -9.95405e-10 10.2786 0.731801 0.0259123 6.40958e-10 -1.20491e-10 -9.95394e-10 2.22167 -0.733487 -0.20892 2.19412e-14 4.68364e-13 -2.97983e-15 -21.0361 10.6016 -0.948064 3.29518 -1.35094 -5.29473 -0.0502649 4.9768 -0.689948 -1.38258e-09 7.97394e-10 6.26951e-10 -2.37965e-09 1.3779e-09 1.1067e-09 -1.38258e-09 7.97394e-10 6.26966e-10 -7.73091 5.47488 -0.417314 -1.38258e-09 7.97394e-10 6.26954e-10 -2.90554 0.965183 -0.102902 -1.38258e-09 7.97395e-10 6.26951e-10 -10.2786 0.731801 -0.0259123 -1.38257e-09 7.97398e-10 6.26942e-10 -2.22167 -0.733487 0.20892 -2.03217e-16 0.0 -3.88251e-19 -1.16972 -4.91136 -1.48869 0.00106564 8.88591 0.133637 -0.527595 -6.48169 -0.391049 2.03217e-16 0.0 3.88251e-19 1.93305 1.19846 0.276875 -0.000625969 -1.30205 -0.00492321 0.955388 -1.22334 4.09992
-171.43 85.2715 7.36047 53.7039 85.334 54.0097 -1.18979 3.40407 2.12131 1.36215 -0.420422 0.715865 2.46187 -3.56541 0.87257 -2.13562 6.31212 1.39508 -0.0 0.0 0.0 -0.0 0.0 0.0 2.52933e-14 1.04608e-12 -6.66239e-15 45.1735 19.0208 0.263925 -9.20666 -4.60334 15.1192 -9.76187e-05 -0.265323 -0.03729 1.09219e-09 -2.36497e-10 -2.06444e-09 1.88321e-09 -4.07384e-10 -3.57231e-09 1.0922e-09 -2.36502e-10 -2.06445e-09 7.73091 5.47488 0.417314 1.0922e-09 -2.36503e-10 -2.06444e-09 2.90554 0.965183 0.102902 1.0922e-09 -2.36504e-10 -2.06444e-09 10.2786 0.731801 0.0259123 1.09219e-09 -2.36501e-10 -2.06443e-09 2.22167 -0.733487 -0.20892 2.52307e-14 1.04608e-12 -6.88603e-15 -42.8898 21.7714 -2.04294 6.50236 -2.73688 -10.8917 0.028811 10.231 -1.4362 -3.05515e-09 1.62943e-09 1.27097e-09 -5.25989e-09 2.81573e-09 2.24428e-09 -3.05515e-09 1.62943e-09 1.27098e-09 -7.73091 5.47488 -0.417314 -3.05515e-09 1.62943e-09 1.27097e-09 -2.90554 0.965183 -0.102902 -3.05515e-09 1.62943e-09 1.27097e-09 -10.2786 0.731801 -0.0259123 -3.05515e-09 1.62943e-09 1.27096e-09 -2.22167 -0.733487 0.20892 -2.03217e-16 0.0 -3.88251e-19 -4.39161 -2.42432 -2.87917 -0.00350034 10.2555 0.161794 -0.632806 -12.9622 -0.846381 2.03217e-16 0.0 3.88251e-19 2.89075 4.50158 0.569705 -0.00841399 -0.48442 -0.0880584 2.28811 -6.64491 8.64403
-171.331 85.2478 7.36652 54.1873 85.2739 54.5002 -2.68675 4.97091 3.07035 1.74575 -0.615728 1.00037 3.63189 -5.19469 1.27372 -3.22234 9.21724 2.04605 -0.0 0.0 0.0 -0.0 0.0 0.0 2.51694e-14 1.40547e-12 -8.8929e-15 65.8152 27.7546 0.395125 -12.6397 -6.45776 22.149 -0.000244824 -0.406923 -0.0571914 1.52918e-09 -3.57874e-10 -2.99123e-09 2.63654e-09 -6.16575e-10 -5.17599e-09 1.52919e-09 -3.57881e-10 -2.99123e-09 7.73091 5.47488 0.417314 1.52918e-09 -3.57883e-10 -2.99122e-09 2.90554 0.965183 0.102902 1.52918e-09 -3.57883e-10 -2.99122e-09 10.2786 0.731801 0.0259123 1.52917e-09 -3.57879e-10 -2.99121e-09 2.22167 -0.733487 -0.20892 2.5166e-14 1.40547e-12 -9.03888e-15 -61.8987 31.7669 -3.28873 9.14569 -3.91461 -15.9179 0.219377 14.9216 -2.13403 -4.54167e-09 2.39583e-09 1.87582e-09 -7.81929e-09 4.14001e-09 3.31142e-09 -4.54167e-09 2.39583e-09 1.87583e-09 -7.73091 5.47488 -0.417314 -4.54167e-09 2.39583e-09 1.87582e-09 -2.90554 0.965183 -0.102902 -4.54167e-09 2.39583e-09 1.87581e-09 -10.2786 0.731801 -0.0259123 -4.54167e-09 2.39583e-09 1.87581e-09 -2.22167 -0.733487 0.20892 -2.03217e-16 0.0 -3.88251e-19 -7.10922 -0.216052 -4.06876 -0.00874371 11.4871 0.187581 -0.839559 -18.7794 -1.3417 2.03217e-16 0.0 3.88251e-19 3.75527 7.44691 0.835749 -0.0134324 0.251054 -0.162819 4.22105 -11.392 12.8267
-171.32 85.2093 7.46238 53.2463 85.4108 53.6817 -3.70514 6.09539 3.71653 2.01443 -0.75304 1.19355 4.47976 -6.31461 1.5494 -4.03392 11.2951 2.50002 -0.0 0.0 0.0 -0.0 0.0 0.0 1.66813e-14 1.21905e-12 -6.70898e-15 80.1914 33.9006 0.443122 -14.8025 -7.62058 27.1832 -0.000410199 -0.578316 -0.0812798 1.93054e-09 -4.92674e-10 -3.56237e-09 3.32887e-09 -8.49272e-10 -6.16421e-09 1.93055e-09 -4.92681e-10 -3.56238e-09 7.73091 5.47488 0.417314 1.93055e-09 -4.92684e-10 -3.56237e-09 2.90554 0.965183 0.102902 1.93055e-09 -4.92684e-10 -3.56237e-09 10.2786 0.731801 0.0259123 1.93054e-09 -4.9268e-10 -3.56236e-09 2.22167 -0.733487 -0.20892 1.67157e-14 1.21905e-12 -6.80838e-15 -74.635 38.8574 -4.53127 10.8921 -4.70133 -19.4853 0.424852 18.2116 -2.65025 -5.56304e-09 2.99813e-09 2.38273e-09 -9.57658e-09 5.18046e-09 4.20244e-09 -5.56304e-09 2.99814e-09 2.38273e-09 -7.73091 5.47488 -0.417314 -5.56304e-09 2.99813e-09 2.38273e-09 -2.90554 0.965183 -0.102902 -5.56304e-09 2.99814e-09 2.38272e-09 -10.2786 0.731801 -0.0259123 -5.56303e-09 2.99814e-09 2.38272e-09 -2.22167 -0.733487 0.20892 -2.03217e-16 0.0 -3.88251e-19 -8.80117 1.30254 -4.75903 -0.0131267 12.3733 0.206841 -1.12115 -22.9408 -1.88804 2.03217e-16 0.0 3.88251e-19 4.45087 9.49848 1.02759 -0.0159706 0.781148 -0.216671 6.0184 -14.729 15.8317
-171.468 85.1319 7.78122 44.9818 85.9485 45.6919 -3.96322 6.61244 3.94584 2.11452 -0.8162 1.26333 4.84916 -6.71713 1.64137 -4.38458 12.2252 2.65473 -0.0 0.0 0.0 -0.0 0.0 0.0 -9.08733e-15 -2.93547e-14 4.20127e-15 85.8541 36.4141 0.345807 -15.672 -8.10041 29.344 -0.000714543 -0.786706 -0.110571 2.36244e-09 -6.8907e-10 -3.63823e-09 4.07457e-09 -1.18896e-09 -6.29521e-09 2.36245e-09 -6.89075e-10 -3.63823e-09 7.73091 5.47488 0.417314 2.36245e-09 -6.89077e-10 -3.63823e-09 2.90554 0.965183 0.102902 2.36245e-09 -6.89077e-10 -3.63822e-09 10.2786 0.731801 0.0259123 2.36244e-09 -6.89074e-10 -3.63822e-09 2.22167 -0.733487 -0.20892 -9.04383e-15 -2.93542e-14 4.10848e-15 -79.1203 41.9166 -5.4195 11.595 -5.02544 -20.9771 0.527721 19.5908 -2.87453 -6.00716e-09 3.45586e-09 2.82585e-09 -1.03377e-08 5.97059e-09 4.97475e-09 -6.00716e-09 3.45586e-09 2.82586e-09 -7.73091 5.47488 -0.417314 -6.00716e-09 3.45586e-09 2.82585e-09 -2.90554 0.965183 -0.102902 -6.00716e-09 3.45586e-09 2.82585e-09 -10.2786 0.731801 -0.0259123 -6.00716e-09 3.45586e-09 2.82584e-09 -2.22167 -0.733487 0.20892 -2.03217e-16 0.0 -3.88251e-19 -9.11154 1.85655 -4.70669 -0.0151814 12.7831 0.216784 -1.42909 -24.8049 -2.49795 2.03217e-16 0.0 3.88251e-19 4.97454 10.2925 1.10277 -0.0170706 1.04661 -0.242238 6.89058 -16.3593 16.9683
-171.353 85.112 7.78686 46.208 85.9307 46.9492 -3.66679 6.69641 3.87469 2.09399 -0.826075 1.24472 4.87158 -6.60766 1.6015 -4.38896 12.3362 2.59119 -0.0 0.0 0.0 -0.0 0.0 0.0 -4.69338e-14 -2.02213e-12 2.12234e-14 85.299 36.3331 0.138478 -15.7311 -8.18201 29.4354 -0.00125662 -1.02174 -0.143613 2.81232e-09 -9.27424e-10 -3.36018e-09 4.8518e-09 -1.60154e-09 -5.8137e-09 2.81232e-09 -9.27425e-10 -3.36019e-09 7.73091 5.47488 0.417314 2.81232e-09 -9.27426e-10 -3.36018e-09 2.90554 0.965183 0.102902 2.81233e-09 -9.27426e-10 -3.36018e-09 10.2786 0.731801 0.0259123 2.81232e-09 -9.27425e-10 -3.36017e-09 2.22167 -0.733487 -0.20892 -4.69018e-14 -2.02213e-12 2.11084e-14 -77.92 42.1083 -5.89455 11.6047 -5.04666 -20.9813 0.5252 19.6047 -2.87603 -6.03544e-09 3.80625e-09 3.21992e-09 -1.03812e-08 6.57493e-09 5.65618e-09 -6.03545e-09 3.80625e-09 3.21993e-09 -7.73091 5.47488 -0.417314 -6.03545e-09 3.80625e-09 3.21992e-09 -2.90554 0.965183 -0.102902 -6.03545e-09 3.80625e-09 3.21992e-09 -10.2786 0.731801 -0.0259123 -6.03544e-09 3.80625e-09 3.21991e-09 -2.22167 -0.733487 0.20892 -2.03217e-16 0.0 -3.88251e-19 -8.45371 1.7231 -4.12386 -0.0152685 12.8522 0.219979 -1.71518 -25.0267 -3.13211 2.03217e-16 0.0 3.88251e-19 5.38076 10.1888 1.0932 -0.017634 1.12196 -0.247537 6.91031 -16.834 16.6998
-171.206 85.1151 7.85499 46.2857 86.0589 46.908 -3.20432 6.59482 3.66104 2.03424 -0.803452 1.18363 4.76043 -6.30146 1.51683 -4.26226 12.1084 2.4524 -0.0 0.0 0.0 -0.0 0.0 0.0 -8.06985e-14 -3.83611e-12 3.66164e-14 82.249 35.2299 -0.119461 -15.4836 -8.12011 28.7141 -0.00200723 -1.27499 -0.179219 3.14076e-09 -1.11408e-09 -2.93642e-09 5.41957e-09 -1.92475e-09 -5.0801e-09 3.14076e-09 -1.11407e-09 -2.93642e-09 7.73091 5.47488 0.417314 3.14076e-09 -1.11407e-09 -2.93642e-09 2.90554 0.965183 0.102902 3.14077e-09 -1.11407e-09 -2.93641e-09 10.2786 0.731801 0.0259123 3.14076e-09 -1.11408e-09 -2.93641e-09 2.22167 -0.733487 -0.20892 -8.06882e-14 -3.8361e-12 3.64622e-14 -74.4944 41.1437 -6.16021 11.3514 -4.95632 -20.4117 0.475247 19.0027 -2.77665 -5.77905e-09 3.97749e-09 3.47705e-09 -9.9349e-09 6.86964e-09 6.09671e-09 -5.77905e-09 3.97748e-09 3.47706e-09 -7.73091 5.47488 -0.417314 -5.77905e-09 3.97749e-09 3.47705e-09 -2.90554 0.965183 -0.102902 -5.77905e-09 3.97749e-09 3.47705e-09 -10.2786 0.731801 -0.0259123 -5.77904e-09 3.97749e-09 3.47704e-09 -2.22167 -0.733487 0.20892 -2.03217e-16 0.0 -3.88251e-19 -7.47542 1.32295 -3.39057 -0.0144736 12.774 0.220246 -1.94908 -24.5606 -3.71654 2.03217e-16 0.0 3.88251e-19 5.68339 9.73697 1.06107 -0.0179607 1.08463 -0.243105 6.55031 -16.7597 15.8655
